<mxfile host="app.diagrams.net" modified="2024-03-18T02:14:11.046Z" agent="Mozilla/5.0 (Windows NT 10.0; Win64; x64) AppleWebKit/537.36 (KHTML, like Gecko) Chrome/120.0.0.0 Safari/537.36" version="24.0.7" etag="fYk7D2N0bWgY_qUHWIDT" type="github">
  <diagram name="Trang-1" id="C98_EicvOus3opwcf4b1">
    <mxGraphModel>
      <root>
        <mxCell id="0" />
        <mxCell id="1" parent="0" />
      </root>
    </mxGraphModel>
  </diagram>
</mxfile>
